<?xml version="1.0" encoding="utf-8" standalone="no"?>
<!DOCTYPE svg PUBLIC "-//W3C//DTD SVG 1.1//EN"
  "http://www.w3.org/Graphics/SVG/1.1/DTD/svg11.dtd">
<svg xmlns:xlink="http://www.w3.org/1999/xlink" width="360pt" height="288pt" viewBox="0 0 360 288" xmlns="http://www.w3.org/2000/svg" version="1.1">
 <metadata>
  <rdf:RDF xmlns:dc="http://purl.org/dc/elements/1.1/" xmlns:cc="http://creativecommons.org/ns#" xmlns:rdf="http://www.w3.org/1999/02/22-rdf-syntax-ns#">
   <cc:Work>
    <dc:type rdf:resource="http://purl.org/dc/dcmitype/StillImage"/>
    <dc:date>2025-09-07T13:39:32.493069</dc:date>
    <dc:format>image/svg+xml</dc:format>
    <dc:creator>
     <cc:Agent>
      <dc:title>Matplotlib v3.10.6, https://matplotlib.org/</dc:title>
     </cc:Agent>
    </dc:creator>
   </cc:Work>
  </rdf:RDF>
 </metadata>
 <defs>
  <style type="text/css">*{stroke-linejoin: round; stroke-linecap: butt}</style>
 </defs>
 <g id="figure_1">
  <g id="patch_1">
   <path d="M 0 288 
L 360 288 
L 360 0 
L 0 0 
z
" style="fill: #ffffff"/>
  </g>
  <g id="axes_1">
   <g id="patch_2">
    <path d="M 46.58 245.08 
L 349.2 245.08 
L 349.2 26.4 
L 46.58 26.4 
z
" style="fill: #ffffff"/>
   </g>
   <g id="PathCollection_1">
    <defs>
     <path id="ma8c363172f" d="M 0 3 
C 0.795609 3 1.55874 2.683901 2.12132 2.12132 
C 2.683901 1.55874 3 0.795609 3 0 
C 3 -0.795609 2.683901 -1.55874 2.12132 -2.12132 
C 1.55874 -2.683901 0.795609 -3 0 -3 
C -0.795609 -3 -1.55874 -2.683901 -2.12132 -2.12132 
C -2.683901 -1.55874 -3 -0.795609 -3 0 
C -3 0.795609 -2.683901 1.55874 -2.12132 2.12132 
C -1.55874 2.683901 -0.795609 3 0 3 
z
" style="stroke: #008000"/>
    </defs>
    <g clip-path="url(#p0a04521403)">
     <use xlink:href="#ma8c363172f" x="231.236556" y="123.420281" style="fill: #008000; stroke: #008000"/>
    </g>
   </g>
   <g id="PathCollection_2">
    <defs>
     <path id="m874f129b51" d="M 0 3 
C 0.795609 3 1.55874 2.683901 2.12132 2.12132 
C 2.683901 1.55874 3 0.795609 3 0 
C 3 -0.795609 2.683901 -1.55874 2.12132 -2.12132 
C 1.55874 -2.683901 0.795609 -3 0 -3 
C -0.795609 -3 -1.55874 -2.683901 -2.12132 -2.12132 
C -2.683901 -1.55874 -3 -0.795609 -3 0 
C -3 0.795609 -2.683901 1.55874 -2.12132 2.12132 
C -1.55874 2.683901 -0.795609 3 0 3 
z
" style="stroke: #ff0000"/>
    </defs>
    <g clip-path="url(#p0a04521403)">
     <use xlink:href="#m874f129b51" x="310.434628" y="224.809971" style="fill: #ff0000; stroke: #ff0000"/>
    </g>
   </g>
   <g id="matplotlib.axis_1">
    <g id="xtick_1">
     <g id="line2d_1">
      <defs>
       <path id="m71cbc048fd" d="M 0 0 
L 0 3.5 
" style="stroke: #000000; stroke-width: 0.8"/>
      </defs>
      <g>
       <use xlink:href="#m71cbc048fd" x="60.335455" y="245.08" style="stroke: #000000; stroke-width: 0.8"/>
      </g>
     </g>
     <g id="text_1">
      <!-- 0.0 -->
      <g transform="translate(53.267486 260.07375) scale(0.1 -0.1)">
       <defs>
        <path id="MicrosoftYaHei-30" d="M 284 2325 
Q 284 3606 709 4264 
Q 1134 4922 1941 4922 
Q 3478 4922 3478 2441 
Q 3478 1216 3045 567 
Q 2613 -81 1831 -81 
Q 1094 -81 689 534 
Q 284 1150 284 2325 
z
M 909 2353 
Q 909 425 1888 425 
Q 2850 425 2850 2384 
Q 2850 4413 1906 4413 
Q 909 4413 909 2353 
z
" transform="scale(0.015625)"/>
        <path id="MicrosoftYaHei-2e" d="M 372 322 
Q 372 491 487 606 
Q 603 722 775 722 
Q 950 722 1065 605 
Q 1181 488 1181 322 
Q 1181 159 1065 42 
Q 950 -75 772 -75 
Q 600 -75 486 42 
Q 372 159 372 322 
z
" transform="scale(0.015625)"/>
       </defs>
       <use xlink:href="#MicrosoftYaHei-30"/>
       <use xlink:href="#MicrosoftYaHei-2e" transform="translate(58.642578 0)"/>
       <use xlink:href="#MicrosoftYaHei-30" transform="translate(82.714844 0)"/>
      </g>
     </g>
    </g>
    <g id="xtick_2">
     <g id="line2d_2">
      <g>
       <use xlink:href="#m71cbc048fd" x="115.357273" y="245.08" style="stroke: #000000; stroke-width: 0.8"/>
      </g>
     </g>
     <g id="text_2">
      <!-- 0.2 -->
      <g transform="translate(108.289304 260.07375) scale(0.1 -0.1)">
       <defs>
        <path id="MicrosoftYaHei-32" d="M 3275 0 
L 331 0 
L 331 531 
L 1738 1934 
Q 2319 2516 2516 2855 
Q 2713 3194 2713 3556 
Q 2713 3969 2481 4189 
Q 2250 4409 1813 4409 
Q 1166 4409 578 3859 
L 578 4481 
Q 1150 4922 1909 4922 
Q 2563 4922 2941 4569 
Q 3319 4216 3319 3619 
Q 3319 3169 3076 2736 
Q 2834 2303 2159 1634 
L 1056 556 
L 1056 544 
L 3275 544 
L 3275 0 
z
" transform="scale(0.015625)"/>
       </defs>
       <use xlink:href="#MicrosoftYaHei-30"/>
       <use xlink:href="#MicrosoftYaHei-2e" transform="translate(58.642578 0)"/>
       <use xlink:href="#MicrosoftYaHei-32" transform="translate(82.714844 0)"/>
      </g>
     </g>
    </g>
    <g id="xtick_3">
     <g id="line2d_3">
      <g>
       <use xlink:href="#m71cbc048fd" x="170.379091" y="245.08" style="stroke: #000000; stroke-width: 0.8"/>
      </g>
     </g>
     <g id="text_3">
      <!-- 0.4 -->
      <g transform="translate(163.311122 260.07375) scale(0.1 -0.1)">
       <defs>
        <path id="MicrosoftYaHei-34" d="M 3525 1256 
L 2906 1256 
L 2906 0 
L 2313 0 
L 2313 1256 
L 56 1256 
L 56 1653 
L 2197 4841 
L 2906 4841 
L 2906 1741 
L 3525 1741 
L 3525 1256 
z
M 2313 1741 
L 2313 3769 
Q 2313 3984 2325 4266 
L 2313 4266 
Q 2269 4147 2128 3894 
L 688 1741 
L 2313 1741 
z
" transform="scale(0.015625)"/>
       </defs>
       <use xlink:href="#MicrosoftYaHei-30"/>
       <use xlink:href="#MicrosoftYaHei-2e" transform="translate(58.642578 0)"/>
       <use xlink:href="#MicrosoftYaHei-34" transform="translate(82.714844 0)"/>
      </g>
     </g>
    </g>
    <g id="xtick_4">
     <g id="line2d_4">
      <g>
       <use xlink:href="#m71cbc048fd" x="225.400909" y="245.08" style="stroke: #000000; stroke-width: 0.8"/>
      </g>
     </g>
     <g id="text_4">
      <!-- 0.6 -->
      <g transform="translate(218.33294 260.07375) scale(0.1 -0.1)">
       <defs>
        <path id="MicrosoftYaHei-36" d="M 3181 4219 
Q 2803 4413 2391 4413 
Q 1763 4413 1381 3866 
Q 1000 3319 994 2372 
L 1009 2372 
Q 1353 3038 2106 3038 
Q 2734 3038 3109 2628 
Q 3484 2219 3484 1541 
Q 3484 831 3051 375 
Q 2619 -81 1947 -81 
Q 1209 -81 789 495 
Q 369 1072 369 2131 
Q 369 3413 920 4167 
Q 1472 4922 2372 4922 
Q 2888 4922 3181 4781 
L 3181 4219 
z
M 1031 1584 
Q 1031 1106 1286 765 
Q 1541 425 1963 425 
Q 2363 425 2613 719 
Q 2863 1013 2863 1475 
Q 2863 1975 2627 2253 
Q 2391 2531 1956 2531 
Q 1544 2531 1287 2250 
Q 1031 1969 1031 1584 
z
" transform="scale(0.015625)"/>
       </defs>
       <use xlink:href="#MicrosoftYaHei-30"/>
       <use xlink:href="#MicrosoftYaHei-2e" transform="translate(58.642578 0)"/>
       <use xlink:href="#MicrosoftYaHei-36" transform="translate(82.714844 0)"/>
      </g>
     </g>
    </g>
    <g id="xtick_5">
     <g id="line2d_5">
      <g>
       <use xlink:href="#m71cbc048fd" x="280.422727" y="245.08" style="stroke: #000000; stroke-width: 0.8"/>
      </g>
     </g>
     <g id="text_5">
      <!-- 0.8 -->
      <g transform="translate(273.354759 260.07375) scale(0.1 -0.1)">
       <defs>
        <path id="MicrosoftYaHei-38" d="M 1369 2547 
Q 503 2950 503 3716 
Q 503 4250 909 4586 
Q 1316 4922 1947 4922 
Q 2525 4922 2900 4606 
Q 3275 4291 3275 3791 
Q 3275 2984 2372 2550 
L 2372 2538 
Q 3431 2156 3431 1238 
Q 3431 634 2995 276 
Q 2559 -81 1778 -81 
Q 1138 -81 734 272 
Q 331 625 331 1188 
Q 331 2113 1369 2534 
L 1369 2547 
z
M 2656 3719 
Q 2656 4044 2453 4231 
Q 2250 4419 1903 4419 
Q 1578 4419 1350 4223 
Q 1122 4028 1122 3725 
Q 1122 3119 1881 2803 
Q 2656 3125 2656 3719 
z
M 1844 2256 
Q 947 1894 947 1219 
Q 947 869 1209 644 
Q 1472 419 1894 419 
Q 2303 419 2559 642 
Q 2816 866 2816 1200 
Q 2816 1903 1844 2256 
z
" transform="scale(0.015625)"/>
       </defs>
       <use xlink:href="#MicrosoftYaHei-30"/>
       <use xlink:href="#MicrosoftYaHei-2e" transform="translate(58.642578 0)"/>
       <use xlink:href="#MicrosoftYaHei-38" transform="translate(82.714844 0)"/>
      </g>
     </g>
    </g>
    <g id="xtick_6">
     <g id="line2d_6">
      <g>
       <use xlink:href="#m71cbc048fd" x="335.444545" y="245.08" style="stroke: #000000; stroke-width: 0.8"/>
      </g>
     </g>
     <g id="text_6">
      <!-- 1.0 -->
      <g transform="translate(328.376577 260.07375) scale(0.1 -0.1)">
       <defs>
        <path id="MicrosoftYaHei-31" d="M 3366 0 
L 591 0 
L 591 528 
L 1675 528 
L 1675 4203 
L 563 3881 
L 563 4444 
L 2284 4944 
L 2284 528 
L 3366 528 
L 3366 0 
z
" transform="scale(0.015625)"/>
       </defs>
       <use xlink:href="#MicrosoftYaHei-31"/>
       <use xlink:href="#MicrosoftYaHei-2e" transform="translate(58.642578 0)"/>
       <use xlink:href="#MicrosoftYaHei-30" transform="translate(82.714844 0)"/>
      </g>
     </g>
    </g>
    <g id="text_7">
     <!-- Recall -->
     <g transform="translate(184.007187 274.553437) scale(0.1 -0.1)">
      <defs>
       <path id="MicrosoftYaHei-52" d="M 4159 0 
L 3422 0 
L 2619 1344 
Q 2378 1747 2178 1892 
Q 1978 2038 1700 2038 
L 1250 2038 
L 1250 0 
L 625 0 
L 625 4841 
L 2100 4841 
Q 2806 4841 3206 4500 
Q 3606 4159 3606 3547 
Q 3606 2541 2531 2241 
L 2531 2225 
Q 2731 2141 2876 1984 
Q 3022 1828 3253 1450 
L 4159 0 
z
M 1250 4294 
L 1250 2584 
L 1988 2584 
Q 2416 2584 2683 2834 
Q 2950 3084 2950 3491 
Q 2950 3869 2706 4081 
Q 2463 4294 1997 4294 
L 1250 4294 
z
" transform="scale(0.015625)"/>
       <path id="MicrosoftYaHei-65" d="M 3363 1572 
L 944 1572 
Q 959 1019 1246 717 
Q 1534 416 2050 416 
Q 2631 416 3116 788 
L 3116 241 
Q 2659 -81 1906 -81 
Q 1156 -81 736 394 
Q 316 869 316 1713 
Q 316 2506 777 3022 
Q 1238 3538 1922 3538 
Q 2600 3538 2981 3102 
Q 3363 2666 3363 1881 
L 3363 1572 
z
M 2750 2063 
Q 2747 2531 2528 2787 
Q 2309 3044 1913 3044 
Q 1547 3044 1280 2772 
Q 1013 2500 944 2063 
L 2750 2063 
z
" transform="scale(0.015625)"/>
       <path id="MicrosoftYaHei-63" d="M 2934 156 
Q 2538 -81 1978 -81 
Q 1228 -81 772 400 
Q 316 881 316 1647 
Q 316 2497 808 3017 
Q 1300 3538 2125 3538 
Q 2600 3538 2938 3369 
L 2938 2763 
Q 2572 3031 2125 3031 
Q 1600 3031 1270 2667 
Q 941 2303 941 1697 
Q 941 1100 1252 762 
Q 1563 425 2091 425 
Q 2538 425 2934 719 
L 2934 156 
z
" transform="scale(0.015625)"/>
       <path id="MicrosoftYaHei-61" d="M 628 3216 
Q 1144 3538 1819 3538 
Q 3069 3538 3069 2225 
L 3069 0 
L 2463 0 
L 2463 534 
L 2447 534 
Q 2088 -81 1388 -81 
Q 884 -81 587 191 
Q 291 463 291 925 
Q 291 1894 1438 2053 
L 2463 2197 
Q 2463 3044 1763 3044 
Q 1141 3044 628 2625 
L 628 3216 
z
M 1653 1625 
Q 1228 1569 1067 1412 
Q 906 1256 906 975 
Q 906 728 1081 572 
Q 1256 416 1544 416 
Q 1944 416 2203 697 
Q 2463 978 2463 1403 
L 2463 1734 
L 1653 1625 
z
" transform="scale(0.015625)"/>
       <path id="MicrosoftYaHei-6c" d="M 544 0 
L 544 5116 
L 1156 5116 
L 1156 0 
L 544 0 
z
" transform="scale(0.015625)"/>
      </defs>
      <use xlink:href="#MicrosoftYaHei-52"/>
      <use xlink:href="#MicrosoftYaHei-65" transform="translate(62.283203 0)"/>
      <use xlink:href="#MicrosoftYaHei-63" transform="translate(119.021484 0)"/>
      <use xlink:href="#MicrosoftYaHei-61" transform="translate(169.167969 0)"/>
      <use xlink:href="#MicrosoftYaHei-6c" transform="translate(224.441406 0)"/>
      <use xlink:href="#MicrosoftYaHei-6c" transform="translate(251.052734 0)"/>
     </g>
    </g>
   </g>
   <g id="matplotlib.axis_2">
    <g id="ytick_1">
     <g id="line2d_7">
      <defs>
       <path id="mf5cc3f9920" d="M 0 0 
L -3.5 0 
" style="stroke: #000000; stroke-width: 0.8"/>
      </defs>
      <g>
       <use xlink:href="#mf5cc3f9920" x="46.58" y="220.253555" style="stroke: #000000; stroke-width: 0.8"/>
      </g>
     </g>
     <g id="text_8">
      <!-- 0.2 -->
      <g transform="translate(25.444062 224.25043) scale(0.1 -0.1)">
       <use xlink:href="#MicrosoftYaHei-30"/>
       <use xlink:href="#MicrosoftYaHei-2e" transform="translate(58.642578 0)"/>
       <use xlink:href="#MicrosoftYaHei-32" transform="translate(82.714844 0)"/>
      </g>
     </g>
    </g>
    <g id="ytick_2">
     <g id="line2d_8">
      <g>
       <use xlink:href="#mf5cc3f9920" x="46.58" y="174.275166" style="stroke: #000000; stroke-width: 0.8"/>
      </g>
     </g>
     <g id="text_9">
      <!-- 0.4 -->
      <g transform="translate(25.444062 178.272041) scale(0.1 -0.1)">
       <use xlink:href="#MicrosoftYaHei-30"/>
       <use xlink:href="#MicrosoftYaHei-2e" transform="translate(58.642578 0)"/>
       <use xlink:href="#MicrosoftYaHei-34" transform="translate(82.714844 0)"/>
      </g>
     </g>
    </g>
    <g id="ytick_3">
     <g id="line2d_9">
      <g>
       <use xlink:href="#mf5cc3f9920" x="46.58" y="128.296777" style="stroke: #000000; stroke-width: 0.8"/>
      </g>
     </g>
     <g id="text_10">
      <!-- 0.6 -->
      <g transform="translate(25.444062 132.293652) scale(0.1 -0.1)">
       <use xlink:href="#MicrosoftYaHei-30"/>
       <use xlink:href="#MicrosoftYaHei-2e" transform="translate(58.642578 0)"/>
       <use xlink:href="#MicrosoftYaHei-36" transform="translate(82.714844 0)"/>
      </g>
     </g>
    </g>
    <g id="ytick_4">
     <g id="line2d_10">
      <g>
       <use xlink:href="#mf5cc3f9920" x="46.58" y="82.318389" style="stroke: #000000; stroke-width: 0.8"/>
      </g>
     </g>
     <g id="text_11">
      <!-- 0.8 -->
      <g transform="translate(25.444062 86.315264) scale(0.1 -0.1)">
       <use xlink:href="#MicrosoftYaHei-30"/>
       <use xlink:href="#MicrosoftYaHei-2e" transform="translate(58.642578 0)"/>
       <use xlink:href="#MicrosoftYaHei-38" transform="translate(82.714844 0)"/>
      </g>
     </g>
    </g>
    <g id="ytick_5">
     <g id="line2d_11">
      <g>
       <use xlink:href="#mf5cc3f9920" x="46.58" y="36.34" style="stroke: #000000; stroke-width: 0.8"/>
      </g>
     </g>
     <g id="text_12">
      <!-- 1.0 -->
      <g transform="translate(25.444062 40.336875) scale(0.1 -0.1)">
       <use xlink:href="#MicrosoftYaHei-31"/>
       <use xlink:href="#MicrosoftYaHei-2e" transform="translate(58.642578 0)"/>
       <use xlink:href="#MicrosoftYaHei-30" transform="translate(82.714844 0)"/>
      </g>
     </g>
    </g>
    <g id="text_13">
     <!-- Precision -->
     <g transform="translate(18.958125 157.219687) rotate(-90) scale(0.1 -0.1)">
      <defs>
       <path id="MicrosoftYaHei-50" d="M 1250 1809 
L 1250 0 
L 625 0 
L 625 4841 
L 2000 4841 
Q 2784 4841 3217 4462 
Q 3650 4084 3650 3381 
Q 3650 2669 3144 2226 
Q 2638 1784 1878 1809 
L 1250 1809 
z
M 1250 4291 
L 1250 2359 
L 1828 2359 
Q 2400 2359 2697 2617 
Q 2994 2875 2994 3356 
Q 2994 4291 1888 4291 
L 1250 4291 
z
" transform="scale(0.015625)"/>
       <path id="MicrosoftYaHei-72" d="M 2400 2850 
Q 2247 2959 1978 2959 
Q 1622 2959 1390 2626 
Q 1159 2294 1159 1750 
L 1159 0 
L 547 0 
L 547 3456 
L 1159 3456 
L 1159 2753 
L 1172 2753 
Q 1434 3516 2078 3516 
Q 2288 3516 2400 3469 
L 2400 2850 
z
" transform="scale(0.015625)"/>
       <path id="MicrosoftYaHei-69" d="M 472 4675 
Q 472 4838 583 4948 
Q 694 5059 856 5059 
Q 1022 5059 1136 4950 
Q 1250 4841 1250 4675 
Q 1250 4513 1136 4405 
Q 1022 4297 856 4297 
Q 691 4297 581 4405 
Q 472 4513 472 4675 
z
M 544 0 
L 544 3456 
L 1156 3456 
L 1156 0 
L 544 0 
z
" transform="scale(0.015625)"/>
       <path id="MicrosoftYaHei-73" d="M 353 747 
Q 816 413 1350 413 
Q 2066 413 2066 881 
Q 2066 1081 1909 1211 
Q 1753 1341 1275 1519 
Q 700 1750 528 1976 
Q 356 2203 356 2525 
Q 356 2984 745 3261 
Q 1134 3538 1703 3538 
Q 2144 3538 2522 3384 
L 2522 2794 
Q 2134 3044 1644 3044 
Q 1350 3044 1165 2916 
Q 981 2788 981 2578 
Q 981 2372 1114 2256 
Q 1247 2141 1703 1959 
Q 2281 1744 2484 1512 
Q 2688 1281 2688 941 
Q 2688 466 2298 192 
Q 1909 -81 1291 -81 
Q 753 -81 353 122 
L 353 747 
z
" transform="scale(0.015625)"/>
       <path id="MicrosoftYaHei-6f" d="M 316 1691 
Q 316 2547 794 3042 
Q 1272 3538 2091 3538 
Q 2869 3538 3311 3061 
Q 3753 2584 3753 1744 
Q 3753 925 3281 422 
Q 2809 -81 2016 -81 
Q 1241 -81 778 406 
Q 316 894 316 1691 
z
M 941 1709 
Q 941 1113 1242 769 
Q 1544 425 2053 425 
Q 2578 425 2853 761 
Q 3128 1097 3128 1725 
Q 3128 2356 2853 2693 
Q 2578 3031 2053 3031 
Q 1538 3031 1239 2678 
Q 941 2325 941 1709 
z
" transform="scale(0.015625)"/>
       <path id="MicrosoftYaHei-6e" d="M 3469 0 
L 2859 0 
L 2859 1966 
Q 2859 3031 2081 3031 
Q 1678 3031 1418 2731 
Q 1159 2431 1159 1972 
L 1159 0 
L 547 0 
L 547 3456 
L 1159 3456 
L 1159 2884 
L 1172 2884 
Q 1563 3538 2306 3538 
Q 2875 3538 3172 3173 
Q 3469 2809 3469 2113 
L 3469 0 
z
" transform="scale(0.015625)"/>
      </defs>
      <use xlink:href="#MicrosoftYaHei-50"/>
      <use xlink:href="#MicrosoftYaHei-72" transform="translate(61.181641 0)"/>
      <use xlink:href="#MicrosoftYaHei-65" transform="translate(97.990234 0)"/>
      <use xlink:href="#MicrosoftYaHei-63" transform="translate(154.728516 0)"/>
      <use xlink:href="#MicrosoftYaHei-69" transform="translate(204.875 0)"/>
      <use xlink:href="#MicrosoftYaHei-73" transform="translate(231.486328 0)"/>
      <use xlink:href="#MicrosoftYaHei-69" transform="translate(277.775391 0)"/>
      <use xlink:href="#MicrosoftYaHei-6f" transform="translate(304.386719 0)"/>
      <use xlink:href="#MicrosoftYaHei-6e" transform="translate(367.960938 0)"/>
     </g>
    </g>
   </g>
   <g id="line2d_12">
    <path d="M 335.444545 235.14 
L 335.444545 233.67214 
L 331.276226 234.09651 
L 331.276226 234.027253 
L 331.276226 230.989074 
L 327.107906 231.449238 
L 327.107906 231.366814 
L 327.107906 229.54096 
L 318.771267 230.509386 
L 318.771267 230.41963 
L 318.771267 228.919638 
L 314.602948 229.425097 
L 314.602948 229.328236 
L 314.602948 228.534608 
L 310.434628 229.052653 
L 310.434628 228.952169 
L 310.434628 224.809971 
L 306.266309 225.377652 
L 306.266309 225.005121 
L 302.097989 225.580319 
L 302.097989 224.169695 
L 297.929669 224.764093 
L 297.929669 224.632449 
L 293.76135 225.232106 
L 293.76135 223.883427 
L 289.59303 224.502382 
L 289.59303 222.328968 
L 285.424711 222.977013 
L 285.424711 222.520095 
L 281.256391 223.177975 
L 281.256391 219.188418 
L 277.088072 219.897133 
L 277.088072 210.887586 
L 272.919752 211.699436 
L 272.919752 203.53414 
L 268.751433 204.433034 
L 268.751433 196.987382 
L 264.583113 197.961002 
L 264.583113 171.570555 
L 260.414793 172.716576 
L 260.414793 151.285972 
L 252.078154 153.731631 
L 252.078154 147.411388 
L 247.909835 148.673563 
L 247.909835 138.514197 
L 239.573196 141.100885 
L 239.573196 139.496641 
L 235.404876 140.836338 
L 235.404876 133.965346 
L 231.236556 135.321253 
L 231.236556 123.420281 
L 222.899917 126.14154 
L 222.899917 123.917883 
L 214.563278 126.789289 
L 214.563278 119.576738 
L 210.394959 121.037032 
L 210.394959 112.970648 
L 202.05832 115.91798 
L 202.05832 99.927133 
L 197.89 101.309462 
L 197.89 85.602559 
L 189.553361 88.065687 
L 181.216722 90.788092 
L 181.216722 75.750047 
L 172.880083 78.138535 
L 168.711763 79.444739 
L 168.711763 66.992259 
L 160.375124 69.181706 
L 160.375124 61.883549 
L 152.038485 63.927033 
L 143.701846 66.325906 
L 143.701846 57.239268 
L 135.365207 59.329194 
L 135.365207 36.34 
L 60.335455 36.34 
L 60.335455 36.34 
" clip-path="url(#p0a04521403)" style="fill: none; stroke: #1f77b4; stroke-width: 1.5; stroke-linecap: square"/>
   </g>
   <g id="patch_3">
    <path d="M 46.58 245.08 
L 46.58 26.4 
" style="fill: none; stroke: #000000; stroke-width: 0.8; stroke-linejoin: miter; stroke-linecap: square"/>
   </g>
   <g id="patch_4">
    <path d="M 349.2 245.08 
L 349.2 26.4 
" style="fill: none; stroke: #000000; stroke-width: 0.8; stroke-linejoin: miter; stroke-linecap: square"/>
   </g>
   <g id="patch_5">
    <path d="M 46.58 245.08 
L 349.2 245.08 
" style="fill: none; stroke: #000000; stroke-width: 0.8; stroke-linejoin: miter; stroke-linecap: square"/>
   </g>
   <g id="patch_6">
    <path d="M 46.58 26.4 
L 349.2 26.4 
" style="fill: none; stroke: #000000; stroke-width: 0.8; stroke-linejoin: miter; stroke-linecap: square"/>
   </g>
   <g id="text_14">
    <!-- Precision-Recall (Train) -->
    <g transform="translate(133.295312 20.4) scale(0.12 -0.12)">
     <defs>
      <path id="MicrosoftYaHei-2d" d="M 2328 1681 
L 488 1681 
L 488 2153 
L 2328 2153 
L 2328 1681 
z
" transform="scale(0.015625)"/>
      <path id="MicrosoftYaHei-20" transform="scale(0.015625)"/>
      <path id="MicrosoftYaHei-28" d="M 1531 -1100 
Q 478 100 478 1847 
Q 478 3594 1531 4841 
L 2072 4841 
Q 1016 3544 1016 1853 
Q 1016 166 2066 -1100 
L 1531 -1100 
z
" transform="scale(0.015625)"/>
      <path id="MicrosoftYaHei-54" d="M 3550 4284 
L 2153 4284 
L 2153 0 
L 1525 0 
L 1525 4284 
L 134 4284 
L 134 4841 
L 3550 4841 
L 3550 4284 
z
" transform="scale(0.015625)"/>
      <path id="MicrosoftYaHei-29" d="M 78 -1100 
Q 1131 163 1131 1853 
Q 1131 3547 72 4841 
L 616 4841 
Q 1672 3603 1672 1847 
Q 1672 91 616 -1100 
L 78 -1100 
z
" transform="scale(0.015625)"/>
     </defs>
     <use xlink:href="#MicrosoftYaHei-50"/>
     <use xlink:href="#MicrosoftYaHei-72" transform="translate(61.181641 0)"/>
     <use xlink:href="#MicrosoftYaHei-65" transform="translate(97.990234 0)"/>
     <use xlink:href="#MicrosoftYaHei-63" transform="translate(154.728516 0)"/>
     <use xlink:href="#MicrosoftYaHei-69" transform="translate(204.875 0)"/>
     <use xlink:href="#MicrosoftYaHei-73" transform="translate(231.486328 0)"/>
     <use xlink:href="#MicrosoftYaHei-69" transform="translate(277.775391 0)"/>
     <use xlink:href="#MicrosoftYaHei-6f" transform="translate(304.386719 0)"/>
     <use xlink:href="#MicrosoftYaHei-6e" transform="translate(367.960938 0)"/>
     <use xlink:href="#MicrosoftYaHei-2d" transform="translate(429.582031 0)"/>
     <use xlink:href="#MicrosoftYaHei-52" transform="translate(472.84375 0)"/>
     <use xlink:href="#MicrosoftYaHei-65" transform="translate(535.126953 0)"/>
     <use xlink:href="#MicrosoftYaHei-63" transform="translate(591.865234 0)"/>
     <use xlink:href="#MicrosoftYaHei-61" transform="translate(642.011719 0)"/>
     <use xlink:href="#MicrosoftYaHei-6c" transform="translate(697.285156 0)"/>
     <use xlink:href="#MicrosoftYaHei-6c" transform="translate(723.896484 0)"/>
     <use xlink:href="#MicrosoftYaHei-20" transform="translate(750.507812 0)"/>
     <use xlink:href="#MicrosoftYaHei-28" transform="translate(780.097656 0)"/>
     <use xlink:href="#MicrosoftYaHei-54" transform="translate(813.496094 0)"/>
     <use xlink:href="#MicrosoftYaHei-72" transform="translate(861.445312 0)"/>
     <use xlink:href="#MicrosoftYaHei-61" transform="translate(899.628906 0)"/>
     <use xlink:href="#MicrosoftYaHei-69" transform="translate(954.902344 0)"/>
     <use xlink:href="#MicrosoftYaHei-6e" transform="translate(981.513672 0)"/>
     <use xlink:href="#MicrosoftYaHei-29" transform="translate(1043.134766 0)"/>
    </g>
   </g>
   <g id="legend_1">
    <g id="patch_7">
     <path d="M 216.909375 80.839062 
L 342.2 80.839062 
Q 344.2 80.839062 344.2 78.839062 
L 344.2 33.4 
Q 344.2 31.4 342.2 31.4 
L 216.909375 31.4 
Q 214.909375 31.4 214.909375 33.4 
L 214.909375 78.839062 
Q 214.909375 80.839062 216.909375 80.839062 
z
" style="fill: #ffffff; opacity: 0.8; stroke: #cccccc; stroke-linejoin: miter"/>
    </g>
    <g id="line2d_13">
     <path d="M 218.909375 39.89375 
L 228.909375 39.89375 
L 238.909375 39.89375 
" style="fill: none; stroke: #1f77b4; stroke-width: 1.5; stroke-linecap: square"/>
    </g>
    <g id="text_15">
     <!-- PR (train) -->
     <g transform="translate(246.909375 43.39375) scale(0.1 -0.1)">
      <defs>
       <path id="MicrosoftYaHei-74" d="M 2206 34 
Q 2006 -75 1666 -75 
Q 738 -75 738 953 
L 738 2950 
L 144 2950 
L 144 3456 
L 738 3456 
L 738 4288 
L 1347 4481 
L 1347 3456 
L 2206 3456 
L 2206 2950 
L 1347 2950 
L 1347 1063 
Q 1347 722 1462 575 
Q 1578 428 1847 428 
Q 2053 428 2206 544 
L 2206 34 
z
" transform="scale(0.015625)"/>
      </defs>
      <use xlink:href="#MicrosoftYaHei-50"/>
      <use xlink:href="#MicrosoftYaHei-52" transform="translate(61.181641 0)"/>
      <use xlink:href="#MicrosoftYaHei-20" transform="translate(126.464844 0)"/>
      <use xlink:href="#MicrosoftYaHei-28" transform="translate(156.054688 0)"/>
      <use xlink:href="#MicrosoftYaHei-74" transform="translate(189.453125 0)"/>
      <use xlink:href="#MicrosoftYaHei-72" transform="translate(226.708984 0)"/>
      <use xlink:href="#MicrosoftYaHei-61" transform="translate(264.892578 0)"/>
      <use xlink:href="#MicrosoftYaHei-69" transform="translate(320.166016 0)"/>
      <use xlink:href="#MicrosoftYaHei-6e" transform="translate(346.777344 0)"/>
      <use xlink:href="#MicrosoftYaHei-29" transform="translate(408.398438 0)"/>
     </g>
    </g>
    <g id="PathCollection_3">
     <g>
      <use xlink:href="#ma8c363172f" x="228.909375" y="56.248437" style="fill: #008000; stroke: #008000"/>
     </g>
    </g>
    <g id="text_16">
     <!-- F1最优阈值≈0.655 -->
     <g transform="translate(246.909375 58.873437) scale(0.1 -0.1)">
      <defs>
       <path id="MicrosoftYaHei-46" d="M 3119 4284 
L 1250 4284 
L 1250 2666 
L 2981 2666 
L 2981 2116 
L 1250 2116 
L 1250 0 
L 625 0 
L 625 4841 
L 3119 4841 
L 3119 4284 
z
" transform="scale(0.015625)"/>
       <path id="MicrosoftYaHei-6700" d="M 169 -28 
Q 475 3 781 38 
L 781 2416 
L 94 2416 
L 94 2791 
L 6288 2791 
L 6288 2416 
L 3025 2416 
L 3025 331 
Q 3325 375 3625 422 
Q 3619 309 3631 22 
Q 3338 -19 3025 -63 
L 3025 -859 
L 2600 -859 
L 2600 -125 
Q 1525 -278 281 -472 
L 169 -28 
z
M 1038 5053 
L 5363 5053 
L 5363 3047 
L 4925 3047 
L 4925 3191 
L 1475 3191 
L 1475 3047 
L 1038 3047 
L 1038 5053 
z
M 3338 1609 
L 3338 1972 
L 5819 1972 
L 5819 1609 
Q 5500 844 4981 278 
Q 5516 -113 6306 -316 
Q 6144 -553 6025 -753 
Q 5219 -488 4666 -34 
Q 4128 -516 3413 -822 
Q 3306 -634 3125 -428 
Q 3834 -156 4347 266 
Q 3825 825 3603 1609 
L 3338 1609 
z
M 1475 3553 
L 4925 3553 
L 4925 3953 
L 1475 3953 
L 1475 3553 
z
M 4925 4691 
L 1475 4691 
L 1475 4291 
L 4925 4291 
L 4925 4691 
z
M 5344 1609 
L 4025 1609 
Q 4222 994 4659 556 
Q 5094 1013 5344 1609 
z
M 2600 269 
L 2600 691 
L 1206 691 
L 1206 88 
Q 1913 172 2600 269 
z
M 1206 1916 
L 2600 1916 
L 2600 2416 
L 1206 2416 
L 1206 1916 
z
M 1206 1053 
L 2600 1053 
L 2600 1553 
L 1206 1553 
L 1206 1053 
z
" transform="scale(0.015625)"/>
       <path id="MicrosoftYaHei-4f18" d="M 1825 3609 
L 3184 3609 
Q 3216 4322 3213 5272 
L 3713 5272 
Q 3719 4338 3688 3609 
L 6188 3609 
L 6188 3153 
L 4475 3153 
L 4475 228 
Q 4475 -122 4838 -122 
L 5244 -122 
Q 5656 -122 5700 303 
Q 5750 659 5781 1266 
Q 6031 1166 6294 1066 
Q 6244 528 6175 109 
Q 6100 -291 5900 -447 
Q 5713 -603 5275 -597 
L 4763 -597 
Q 4325 -597 4150 -422 
Q 3969 -259 3969 184 
L 3969 3153 
L 3663 3153 
Q 3600 791 1950 -803 
Q 1775 -597 1575 -397 
Q 3100 1028 3159 3153 
L 1825 3153 
L 1825 3609 
z
M 88 2334 
Q 1056 3641 1556 5291 
L 2063 5122 
Q 1753 4253 1388 3522 
L 1388 -809 
L 913 -809 
L 913 2666 
Q 616 2184 288 1778 
Q 194 2047 88 2334 
z
M 4600 5184 
Q 5269 4759 5713 4391 
Q 5538 4197 5388 3991 
Q 4875 4447 4325 4841 
L 4600 5184 
z
" transform="scale(0.015625)"/>
       <path id="MicrosoftYaHei-9608" d="M 3163 703 
Q 3475 947 3731 1234 
Q 3500 1984 3419 3141 
L 1225 3141 
L 1225 3541 
L 3394 3541 
Q 3381 3891 3381 4284 
L 3813 4284 
Q 3819 3891 3838 3541 
L 5313 3541 
L 5313 3141 
L 3856 3141 
Q 3925 2266 4075 1659 
Q 4425 2153 4650 2753 
L 5075 2572 
Q 4725 1791 4231 1166 
Q 4344 872 4488 678 
Q 4706 434 4763 691 
Q 4819 984 4844 1266 
Q 5088 1159 5269 1122 
Q 5194 584 5131 316 
Q 5038 -59 4819 -59 
Q 4469 -59 4106 434 
Q 3994 584 3906 784 
Q 3656 516 3381 284 
Q 3281 528 3163 703 
z
M 2425 4491 
L 2425 4916 
L 5988 4916 
L 5988 -3 
Q 5988 -766 5181 -766 
Q 4819 -766 4356 -753 
Q 4300 -403 4256 -284 
Q 4769 -322 5088 -322 
Q 5544 -322 5544 97 
L 5544 4491 
L 2425 4491 
z
M 1425 2609 
L 3106 2609 
L 3106 909 
L 2700 909 
L 2700 1134 
L 1831 1134 
L 1831 847 
L 1425 847 
L 1425 2609 
z
M 431 4084 
L 875 4084 
L 875 -816 
L 431 -816 
L 431 4084 
z
M 1119 378 
Q 2169 466 3200 578 
Q 3206 347 3213 153 
Q 2256 59 1181 -47 
L 1119 378 
z
M 2700 2234 
L 1831 2234 
L 1831 1509 
L 2700 1509 
L 2700 2234 
z
M 800 4984 
L 1119 5278 
Q 1563 4872 1975 4422 
L 1613 4091 
Q 1213 4566 800 4984 
z
M 4038 4141 
L 4269 4428 
Q 4619 4184 4931 3934 
L 4663 3616 
Q 4444 3809 4038 4141 
z
" transform="scale(0.015625)"/>
       <path id="MicrosoftYaHei-503c" d="M 1619 -216 
L 2250 -216 
L 2250 3653 
L 3725 3653 
L 3725 4222 
L 1913 4222 
L 1913 4647 
L 3725 4647 
L 3725 5309 
L 4200 5309 
L 4200 4647 
L 6169 4647 
L 6169 4222 
L 4200 4222 
L 4200 3653 
L 5713 3653 
L 5713 -216 
L 6306 -216 
L 6306 -641 
L 1619 -641 
L 1619 -216 
z
M 69 2247 
Q 906 3497 1369 5278 
L 1831 5141 
Q 1581 4334 1288 3628 
L 1288 -816 
L 831 -816 
L 831 2666 
Q 563 2166 263 1734 
Q 175 1997 69 2247 
z
M 2713 -216 
L 5250 -216 
L 5250 353 
L 2713 353 
L 2713 -216 
z
M 5250 3241 
L 2713 3241 
L 2713 2678 
L 5250 2678 
L 5250 3241 
z
M 2713 1716 
L 5250 1716 
L 5250 2278 
L 2713 2278 
L 2713 1716 
z
M 2713 753 
L 5250 753 
L 5250 1316 
L 2713 1316 
L 2713 753 
z
" transform="scale(0.015625)"/>
       <path id="MicrosoftYaHei-2248" d="M 4053 3256 
Q 4028 2750 3778 2472 
Q 3528 2194 3094 2194 
Q 2728 2194 2203 2550 
Q 1872 2778 1669 2778 
Q 1203 2778 1184 2191 
L 700 2191 
Q 722 2703 980 2978 
Q 1238 3253 1659 3253 
Q 2019 3253 2456 2959 
Q 2894 2663 3116 2663 
Q 3322 2663 3444 2823 
Q 3566 2984 3572 3256 
L 4053 3256 
z
M 4053 1853 
Q 4028 1347 3778 1067 
Q 3528 788 3094 788 
Q 2725 788 2203 1147 
Q 1878 1369 1669 1369 
Q 1203 1369 1184 784 
L 700 784 
Q 722 1294 980 1572 
Q 1238 1850 1659 1850 
Q 2022 1850 2456 1559 
Q 2906 1256 3116 1256 
Q 3319 1256 3441 1423 
Q 3563 1591 3572 1853 
L 4053 1853 
z
" transform="scale(0.015625)"/>
       <path id="MicrosoftYaHei-35" d="M 553 744 
Q 1041 425 1569 425 
Q 2069 425 2375 704 
Q 2681 984 2681 1447 
Q 2681 1913 2370 2169 
Q 2059 2425 1469 2425 
Q 1184 2425 703 2381 
L 703 4841 
L 3084 4841 
L 3084 4300 
L 1272 4300 
L 1272 2931 
Q 1544 2947 1681 2947 
Q 2447 2947 2875 2559 
Q 3303 2172 3303 1491 
Q 3303 788 2843 353 
Q 2384 -81 1575 -81 
Q 897 -81 553 119 
L 553 744 
z
" transform="scale(0.015625)"/>
      </defs>
      <use xlink:href="#MicrosoftYaHei-46"/>
      <use xlink:href="#MicrosoftYaHei-31" transform="translate(53.125 0)"/>
      <use xlink:href="#MicrosoftYaHei-6700" transform="translate(111.767578 0)"/>
      <use xlink:href="#MicrosoftYaHei-4f18" transform="translate(211.767578 0)"/>
      <use xlink:href="#MicrosoftYaHei-9608" transform="translate(311.767578 0)"/>
      <use xlink:href="#MicrosoftYaHei-503c" transform="translate(411.767578 0)"/>
      <use xlink:href="#MicrosoftYaHei-2248" transform="translate(511.767578 0)"/>
      <use xlink:href="#MicrosoftYaHei-30" transform="translate(586.035156 0)"/>
      <use xlink:href="#MicrosoftYaHei-2e" transform="translate(644.677734 0)"/>
      <use xlink:href="#MicrosoftYaHei-36" transform="translate(668.75 0)"/>
      <use xlink:href="#MicrosoftYaHei-35" transform="translate(727.392578 0)"/>
      <use xlink:href="#MicrosoftYaHei-35" transform="translate(786.035156 0)"/>
     </g>
    </g>
    <g id="PathCollection_4">
     <g>
      <use xlink:href="#m874f129b51" x="228.909375" y="71.728125" style="fill: #ff0000; stroke: #ff0000"/>
     </g>
    </g>
    <g id="text_17">
     <!-- 召回优先阈值≈0.295 -->
     <g transform="translate(246.909375 74.353125) scale(0.1 -0.1)">
      <defs>
       <path id="MicrosoftYaHei-53ec" d="M 913 1884 
L 5525 1884 
L 5525 -866 
L 5025 -866 
L 5025 -478 
L 1413 -478 
L 1413 -878 
L 913 -878 
L 913 1884 
z
M 406 4941 
L 5713 4941 
Q 5638 3916 5581 3409 
Q 5469 2397 4475 2397 
Q 3856 2397 3194 2403 
Q 3150 2678 3063 2966 
Q 3769 2916 4388 2916 
Q 4994 2916 5069 3509 
Q 5119 3897 5156 4472 
L 2625 4472 
Q 2550 3453 2125 2934 
Q 1594 2316 438 1834 
Q 244 2109 88 2297 
Q 1288 2753 1694 3259 
Q 2050 3647 2119 4472 
L 406 4472 
L 406 4941 
z
M 5025 1428 
L 1413 1428 
L 1413 -34 
L 5025 -34 
L 5025 1428 
z
" transform="scale(0.015625)"/>
       <path id="MicrosoftYaHei-56de" d="M 475 4947 
L 5938 4947 
L 5938 -778 
L 5413 -778 
L 5413 -378 
L 1000 -378 
L 1000 -778 
L 475 -778 
L 475 4947 
z
M 5413 4484 
L 1000 4484 
L 1000 72 
L 5413 72 
L 5413 4484 
z
M 1875 3528 
L 4531 3528 
L 4531 797 
L 4044 797 
L 4044 1147 
L 2363 1147 
L 2363 797 
L 1875 797 
L 1875 3528 
z
M 4044 3091 
L 2363 3091 
L 2363 1584 
L 4044 1584 
L 4044 3091 
z
" transform="scale(0.015625)"/>
       <path id="MicrosoftYaHei-5148" d="M 225 2453 
L 2956 2453 
L 2956 3784 
L 1459 3784 
Q 1153 3166 800 2709 
Q 569 2891 394 2997 
Q 1094 3903 1481 5166 
L 1969 5028 
Q 1828 4613 1672 4247 
L 2956 4247 
L 2956 5309 
L 3469 5309 
L 3469 4247 
L 5788 4247 
L 5788 3784 
L 3469 3784 
L 3469 2453 
L 6219 2453 
L 6219 1991 
L 4206 1991 
L 4206 222 
Q 4169 -259 4638 -216 
L 5275 -216 
Q 5706 -216 5750 109 
Q 5794 428 5819 1022 
Q 6056 922 6344 834 
Q 6313 372 6231 -122 
Q 6169 -434 5956 -559 
Q 5769 -678 5281 -678 
L 4538 -678 
Q 3663 -716 3700 141 
L 3700 1991 
L 2478 1991 
Q 2428 909 2044 328 
Q 1581 -397 369 -847 
Q 244 -647 50 -397 
Q 1163 -16 1581 584 
Q 1925 1047 1978 1991 
L 225 1991 
L 225 2453 
z
" transform="scale(0.015625)"/>
       <path id="MicrosoftYaHei-39" d="M 578 656 
Q 978 425 1441 425 
Q 2091 425 2448 937 
Q 2806 1450 2806 2394 
Q 2800 2388 2794 2394 
Q 2475 1788 1722 1788 
Q 1113 1788 713 2206 
Q 313 2625 313 3294 
Q 313 4006 750 4464 
Q 1188 4922 1884 4922 
Q 2606 4922 3012 4355 
Q 3419 3788 3419 2703 
Q 3419 1363 2894 641 
Q 2369 -81 1441 -81 
Q 931 -81 578 84 
L 578 656 
z
M 931 3372 
Q 931 2884 1181 2598 
Q 1431 2313 1872 2313 
Q 2253 2313 2512 2573 
Q 2772 2834 2772 3206 
Q 2772 3728 2514 4070 
Q 2256 4413 1834 4413 
Q 1444 4413 1187 4116 
Q 931 3819 931 3372 
z
" transform="scale(0.015625)"/>
      </defs>
      <use xlink:href="#MicrosoftYaHei-53ec"/>
      <use xlink:href="#MicrosoftYaHei-56de" transform="translate(100 0)"/>
      <use xlink:href="#MicrosoftYaHei-4f18" transform="translate(200 0)"/>
      <use xlink:href="#MicrosoftYaHei-5148" transform="translate(300 0)"/>
      <use xlink:href="#MicrosoftYaHei-9608" transform="translate(400 0)"/>
      <use xlink:href="#MicrosoftYaHei-503c" transform="translate(500 0)"/>
      <use xlink:href="#MicrosoftYaHei-2248" transform="translate(600 0)"/>
      <use xlink:href="#MicrosoftYaHei-30" transform="translate(674.267578 0)"/>
      <use xlink:href="#MicrosoftYaHei-2e" transform="translate(732.910156 0)"/>
      <use xlink:href="#MicrosoftYaHei-32" transform="translate(756.982422 0)"/>
      <use xlink:href="#MicrosoftYaHei-39" transform="translate(815.625 0)"/>
      <use xlink:href="#MicrosoftYaHei-35" transform="translate(874.267578 0)"/>
     </g>
    </g>
   </g>
  </g>
 </g>
 <defs>
  <clipPath id="p0a04521403">
   <rect x="46.58" y="26.4" width="302.62" height="218.68"/>
  </clipPath>
 </defs>
</svg>
